<svg xmlns="http://www.w3.org/2000/svg" viewBox="0 0 300 100" width="300" height="100">
  <defs>
    <linearGradient id="feature-gold" x1="0%" y1="0%" x2="100%" y2="100%">
      <stop offset="0%" style="stop-color:#F59E0B"/>
      <stop offset="100%" style="stop-color:#D97706"/>
    </linearGradient>
  </defs>
  
  <!-- Booking Icon -->
  <g transform="translate(20, 20)">
    <rect x="15" y="15" width="30" height="30" rx="5" fill="url(#feature-gold)" stroke="#B45309" stroke-width="2"/>
    <path d="M20 25L30 25L30 35" stroke="white" stroke-width="2" fill="none"/>
    <circle cx="25" cy="20" r="2" fill="white"/>
  </g>
  
  <!-- Quality Icon -->
  <g transform="translate(80, 20)">
    <polygon points="30,10 35,25 50,25 37,35 42,50 30,40 18,50 23,35 10,25 25,25" fill="url(#feature-gold)" stroke="#B45309" stroke-width="2"/>
  </g>
  
  <!-- Experience Icon -->
  <g transform="translate(140, 20)">
    <circle cx="30" cy="30" r="25" fill="url(#feature-gold)" stroke="#B45309" stroke-width="2"/>
    <text x="30" y="38" text-anchor="middle" font-family="serif" font-size="20" font-weight="bold" fill="white">5</text>
  </g>
  
  <!-- Service Icon -->
  <g transform="translate(200, 20)">
    <rect x="20" y="20" width="20" height="20" rx="3" fill="url(#feature-gold)" stroke="#B45309" stroke-width="2"/>
    <path d="M25 25L30 30L35 25" stroke="white" stroke-width="2" fill="none"/>
  </g>
</svg>
