<svg xmlns="http://www.w3.org/2000/svg" viewBox="0 0 400 200" width="400" height="200">
  <defs>
    <linearGradient id="gold" x1="0%" y1="0%" x2="100%" y2="100%">
      <stop offset="0%" style="stop-color:#D97706"/>
      <stop offset="50%" style="stop-color:#F59E0B"/>
      <stop offset="100%" style="stop-color:#EA580C"/>
    </linearGradient>
    <linearGradient id="crown" x1="0%" y1="0%" x2="100%" y2="100%">
      <stop offset="0%" style="stop-color:#DC2626"/>
      <stop offset="100%" style="stop-color:#7C2D12"/>
    </linearGradient>
    <linearGradient id="text" x1="0%" y1="0%" x2="100%" y2="0%">
      <stop offset="0%" style="stop-color:#B45309"/>
      <stop offset="50%" style="stop-color:#EA580C"/>
      <stop offset="100%" style="stop-color:#DC2626"/>
    </linearGradient>
  </defs>
  
  <!-- Background rectangle -->
  <rect x="20" y="20" width="360" height="160" rx="20" fill="url(#gold)" stroke="#B45309" stroke-width="2"/>
  
  <!-- Logo icon -->
  <g transform="translate(60, 60)">
    <circle cx="40" cy="40" r="35" fill="white" stroke="#B45309" stroke-width="2"/>
    <g transform="translate(25, 25)">
      <path d="M15 5L5 15L15 25" stroke="#B45309" stroke-width="3" fill="none" stroke-linecap="round"/>
      <path d="M25 5L35 15L25 25" stroke="#B45309" stroke-width="3" fill="none" stroke-linecap="round"/>
      <circle cx="15" cy="15" r="2" fill="#B45309"/>
      <circle cx="25" cy="15" r="2" fill="#B45309"/>
    </g>
    <circle cx="65" cy="15" r="8" fill="url(#crown)"/>
    <path d="M60 8L65 3L70 8L68 12L62 12Z" fill="white"/>
  </g>
  
  <!-- Text -->
  <text x="200" y="140" text-anchor="middle" font-family="serif" font-size="32" font-weight="bold" fill="url(#text)">
    BARBERY'S
  </text>
  <text x="200" y="165" text-anchor="middle" font-family="sans-serif" font-size="14" font-weight="500" fill="#B45309">
    PREMIUM GROOMING
  </text>
</svg>

