<svg xmlns="http://www.w3.org/2000/svg" viewBox="0 0 400 100" width="400" height="100">
  <defs>
    <linearGradient id="icon-gold" x1="0%" y1="0%" x2="100%" y2="100%">
      <stop offset="0%" style="stop-color:#D97706"/>
      <stop offset="100%" style="stop-color:#F59E0B"/>
    </linearGradient>
  </defs>
  
  <!-- Haircut Icon -->
  <g transform="translate(20, 20)">
    <circle cx="30" cy="30" r="25" fill="url(#icon-gold)" stroke="#B45309" stroke-width="2"/>
    <path d="M15 25L25 35L35 25L45 35" stroke="white" stroke-width="3" fill="none" stroke-linecap="round"/>
    <circle cx="25" cy="35" r="2" fill="white"/>
    <circle cx="35" cy="25" r="2" fill="white"/>
  </g>
  
  <!-- Beard Trim Icon -->
  <g transform="translate(120, 20)">
    <rect x="15" y="20" width="30" height="20" rx="10" fill="url(#icon-gold)" stroke="#B45309" stroke-width="2"/>
    <path d="M20 30L30 30L40 30" stroke="white" stroke-width="2" fill="none"/>
    <path d="M25 25L25 35" stroke="white" stroke-width="2" fill="none"/>
  </g>
  
  <!-- Styling Icon -->
  <g transform="translate(220, 20)">
    <circle cx="30" cy="30" r="25" fill="url(#icon-gold)" stroke="#B45309" stroke-width="2"/>
    <path d="M20 25Q30 15 40 25" stroke="white" stroke-width="3" fill="none"/>
    <path d="M25 30Q30 20 35 30" stroke="white" stroke-width="3" fill="none"/>
  </g>
  
  <!-- Shave Icon -->
  <g transform="translate(320, 20)">
    <rect x="20" y="25" width="20" height="10" rx="5" fill="url(#icon-gold)" stroke="#B45309" stroke-width="2"/>
    <path d="M15 30L20 30" stroke="white" stroke-width="2" fill="none"/>
    <path d="M45 30L50 30" stroke="white" stroke-width="2" fill="none"/>
  </g>
</svg>
